<svg xmlns="http://www.w3.org/2000/svg" viewBox="0 0 1000 1000">
  <!-- Madison Gorilla Icon - Compact version -->
  <g fill="#5DADE2">
    <polygon points="500,50 650,200 750,150 850,250 900,200 950,300 850,350 750,300 650,400 500,250 350,400 250,300 150,350 50,300 100,200 150,250 250,150 350,200"/>
    <polygon points="50,300 150,350 200,450 250,550 200,650 100,600 50,500"/>
    <polygon points="950,300 850,350 800,450 750,550 800,650 900,600 950,500"/>
    <polygon points="250,550 200,650 150,750 100,850 150,950 250,900 300,800 350,700 400,650 450,700 500,800 550,700 600,650 650,700 700,800 750,900 850,950 900,850 850,750 800,650 750,550 700,650 650,750 600,850 550,950 500,900 450,950 400,850 350,750 300,650"/>
    <polygon points="150,950 250,900 300,950 250,1000 150,1000"/>
    <polygon points="850,950 750,900 700,950 750,1000 850,1000"/>
  </g>
</svg>
